<svg width="34" height="25" viewBox="0 0 34 25" fill="none" xmlns="http://www.w3.org/2000/svg">
<path d="M6.14959 24.1981C5.42359 24.1981 4.79659 24.1981 4.29559 24.1561C3.70759 24.1081 3.27559 24.0031 2.89459 23.8081C2.21659 23.4631 1.67659 22.9231 1.33159 22.2451C1.13659 21.8671 1.02859 21.4351 0.980591 20.8441C0.941591 20.3461 0.941591 19.7191 0.941591 18.9931V5.40612C0.941591 4.68012 0.941591 4.05312 0.980591 3.55212C1.02859 2.96112 1.13659 2.52912 1.33159 2.15112C1.67959 1.47312 2.21959 0.93312 2.89759 0.58812C3.27559 0.39612 3.70759 0.28812 4.29559 0.24012C4.79659 0.19812 5.42359 0.19812 6.14959 0.19812H22.5446C23.2706 0.19812 23.8976 0.19812 24.3986 0.24012C24.9896 0.28812 25.4216 0.39612 25.7996 0.58812C26.4776 0.93312 27.0176 1.47312 27.3626 2.15112C27.5546 2.52912 27.6626 2.96112 27.7106 3.55212C27.7526 4.05312 27.7526 4.68012 27.7526 5.40612V9.11412L26.2196 10.6471V8.75412H9.49759V22.6651H13.0286V20.2411H14.5826V22.6651H17.5496V17.1181H19.1036V22.6651H22.0706V19.7461H23.6246V22.6621L24.0176 22.6441C24.1076 22.6381 24.1946 22.6351 24.2756 22.6291C24.7556 22.5901 24.9626 22.5121 25.1006 22.4431C25.4876 22.2451 25.7966 21.9361 25.9946 21.5491C26.0666 21.4111 26.1416 21.2041 26.1836 20.7181C26.2106 20.3851 26.2166 19.9711 26.2166 19.4551V16.8211L27.7526 15.2851V18.9901C27.7526 19.7161 27.7526 20.3431 27.7106 20.8411C27.6626 21.4321 27.5546 21.8641 27.3626 22.2421C27.0176 22.9201 26.4776 23.4601 25.7996 23.8051C25.4186 24.0001 24.9896 24.1051 24.3986 24.1531C23.8976 24.1951 23.2706 24.1951 22.5446 24.1951H6.14959V24.1981ZM2.47759 18.9391C2.47759 19.7221 2.47759 20.2891 2.51359 20.7211C2.55259 21.2071 2.63059 21.4111 2.69959 21.5491C2.89759 21.9391 3.20659 22.2481 3.59359 22.4431C3.73759 22.5151 3.94459 22.5901 4.42159 22.6291C4.85359 22.6651 5.42059 22.6651 6.20359 22.6651H7.96459V8.75412H2.47759V18.9391ZM6.20359 1.73412C5.42059 1.73412 4.85359 1.73412 4.42159 1.76712C3.92659 1.80912 3.72259 1.88712 3.58759 1.95612C3.20359 2.15412 2.89459 2.46312 2.69659 2.84712C2.62459 2.99112 2.54959 3.19812 2.51059 3.67812C2.47459 4.11012 2.47459 4.67712 2.47459 5.46012V7.22112H26.2196V5.46012C26.2196 4.66212 26.2196 4.10712 26.1836 3.67812C26.1446 3.20112 26.0696 2.99412 26.0006 2.85312C25.7996 2.46012 25.4906 2.15112 25.1036 1.95612C24.9686 1.88712 24.7616 1.80912 24.2726 1.76712C23.8406 1.73412 23.2736 1.73412 22.4906 1.73412H6.20359Z" fill="#1A73E8"/>
<path d="M13.9406 18.8521C13.6286 18.8521 13.3256 18.7381 13.0916 18.5341C12.8306 18.3061 12.6776 17.9911 12.6536 17.6461C12.6296 17.3011 12.7436 16.9681 12.9686 16.7101C13.2116 16.4281 13.5656 16.2661 13.9406 16.2661L14.2196 16.2721L16.8446 13.2721L16.8236 13.0501C16.8236 13.0201 16.8206 12.9901 16.8206 12.9571V12.9211C16.7936 12.5761 16.9076 12.2431 17.1356 11.9821C17.3576 11.7301 17.6696 11.5741 18.0026 11.5471V12.8101H19.4006V12.8491C19.4066 12.8911 19.4066 12.9451 19.4006 13.0021L19.3886 13.2511L22.3736 15.8851L22.6136 15.8461C22.6736 15.8371 22.7366 15.8311 22.8056 15.8311C22.8536 15.8311 22.8986 15.8341 22.9466 15.8371L23.1896 15.8611L30.8036 8.24711L30.7766 8.00111C30.7316 7.60811 30.8666 7.22111 31.1456 6.94211C31.3886 6.69911 31.7126 6.56411 32.0606 6.56411C32.4086 6.56411 32.7296 6.69911 32.9726 6.94211C33.2156 7.18511 33.3506 7.50911 33.3506 7.85711C33.3506 8.20511 33.2156 8.52611 32.9726 8.77211C32.7296 9.01511 32.4056 9.15011 32.0606 9.15011C32.0276 9.15011 31.9946 9.15011 31.9616 9.14711L31.7216 9.12911L24.0836 16.7671L24.1076 17.0071C24.1376 17.3641 24.0266 17.7091 23.7896 17.9791C23.5436 18.2551 23.1896 18.4141 22.8206 18.4141C22.5056 18.4141 22.2026 18.3001 21.9656 18.0901C21.6746 17.8321 21.5156 17.4631 21.5276 17.0761L21.5366 16.8331L18.5276 14.1751L18.2936 14.2081C18.2336 14.2141 18.1766 14.2201 18.1196 14.2201C18.0746 14.2201 18.0326 14.2171 17.9876 14.2141L17.7296 14.1871L15.1826 17.1001L15.2216 17.3401C15.2846 17.7211 15.1736 18.1081 14.9186 18.4021C14.6726 18.6811 14.3186 18.8431 13.9436 18.8431L13.9406 18.8521Z" fill="#1A73E8"/>
<path d="M20.6066 12.6271C20.6066 13.0591 20.4956 13.4611 20.2946 13.8121C20.0186 14.3071 19.5716 14.6941 19.0376 14.8951C18.7736 14.9941 18.4856 15.0511 18.1856 15.0511C17.8856 15.0511 17.6156 15.0001 17.3546 14.9071C16.8206 14.7121 16.3766 14.3341 16.0946 13.8511C15.8846 13.4941 15.7646 13.0771 15.7646 12.6301C15.7646 11.2921 16.8476 10.2091 18.1856 10.2091V12.6301H20.6066V12.6271Z" fill="#FE544F"/>
<path d="M21.5456 11.6881H19.1246V9.26711C20.4626 9.26711 21.5456 10.3501 21.5456 11.6881Z" fill="#FFCB2D"/>
</svg>
